<?xml version="1.0" encoding="UTF-8"?>
<svg width="50px" height="50px" viewBox="0 0 50 50" version="1.1" xmlns="http://www.w3.org/2000/svg" xmlns:xlink="http://www.w3.org/1999/xlink">
    <!-- Generator: Sketch 49.1 (51147) - http://www.bohemiancoding.com/sketch -->
    <title>ico/exchanges</title>
    <desc>Created with Sketch.</desc>
    <defs></defs>
    <g id="ico/exchanges" stroke="none" stroke-width="1" fill="none" fill-rule="evenodd">
        <path d="M20,7 L36,7 C40.418278,7 44,10.581722 44,15 C44,19.418278 40.418278,23 36,23 L1.69230769,23 L1.69230769,19 L36,19 C38.209139,19 40,17.209139 40,15 C40,12.790861 38.209139,11 36,11 L20,11 L20,15 L10,9 L20,3 L20,7 Z M30,43 L14,43 C9.581722,43 6,39.418278 6,35 C6,30.581722 9.581722,27 14,27 L48.3076923,27 L48.3076923,31 L14,31 C11.790861,31 10,32.790861 10,35 C10,37.209139 11.790861,39 14,39 L30,39 L30,35 L40,41 L30,47 L30,43 Z" id="Combined-Shape" fill="#FFFFFF" fill-rule="nonzero"></path>
    </g>
</svg>