<?xml version="1.0" encoding="UTF-8"?>
<svg width="46px" height="46px" viewBox="0 0 46 46" version="1.1" xmlns="http://www.w3.org/2000/svg" xmlns:xlink="http://www.w3.org/1999/xlink">
    <!-- Generator: Sketch 49.1 (51147) - http://www.bohemiancoding.com/sketch -->
    <title>ico/barico/exchang-sel</title>
    <desc>Created with Sketch.</desc>
    <defs></defs>
    <g id="ico/barico/exchang-sel" stroke="none" stroke-width="1" fill="none" fill-rule="evenodd">
        <path d="M35.0668377,11.5 L39,11.5 C42.0375661,11.5 44.5,13.9624339 44.5,17 L44.5,22.5 L41,22.5 L6,22.5 L2.5,22.5 L2.5,17 C2.5,13.9624339 4.96243388,11.5 8,11.5 L12.8837076,11.5 L11.7139994,10.8619773 C11.175243,10.5681102 10.6926704,10.181327 10.2885522,9.71947763 C8.39464266,7.55500958 8.61397366,4.2650445 10.7784417,2.37113496 C11.0299312,2.15108162 11.2993846,1.95244733 11.5839844,1.77730901 C14.4029807,0.0425420543 18.0945352,0.921483603 19.8293021,3.74047991 L23.9752726,10.477682 L28.1212431,3.74047991 C29.8560101,0.921483603 33.5475646,0.0425420543 36.3665609,1.77730901 C36.6511607,1.95244733 36.920614,2.15108162 37.1721035,2.37113496 C39.3365716,4.2650445 39.5559026,7.55500958 37.6619931,9.71947763 C37.2578748,10.181327 36.7753023,10.5681102 36.2365459,10.8619773 L35.0668377,11.5 Z M6,25.5 L22,25.5 L22,45.5 L11.5,45.5 C8.46243388,45.5 6,43.0375661 6,40 L6,25.5 Z M41,25.5 L41,40 C41,43.0375661 38.5375661,45.5 35.5,45.5 L25,45.5 L25,25.5 L41,25.5 Z M17.2743272,5.31277218 C16.4079133,3.90484958 14.5641992,3.46587005 13.1562766,4.33228396 C13.0141358,4.41975523 12.8795597,4.51896136 12.7539555,4.62886504 C11.8363974,5.43172843 11.7434189,6.82640565 12.5462823,7.7439638 C12.7175955,7.93975033 12.9221669,8.10371489 13.1505558,8.22829063 L19.1486896,11.5 L21.081852,11.5 L17.2743272,5.31277218 Z M30.6762181,5.31277218 L26.8686933,11.5 L28.8018556,11.5 L34.7999895,8.22829063 C35.0283783,8.10371489 35.2329498,7.93975033 35.404263,7.7439638 C36.2071264,6.82640565 36.1141479,5.43172843 35.1965897,4.62886504 C35.0709855,4.51896136 34.9364094,4.41975523 34.7942686,4.33228396 C33.386346,3.46587005 31.542632,3.90484958 30.6762181,5.31277218 Z" id="Combined-Shape" fill="#F29700" fill-rule="nonzero"></path>
    </g>
</svg>