<?xml version="1.0" encoding="UTF-8"?>
<svg width="50px" height="50px" viewBox="0 0 50 50" version="1.1" xmlns="http://www.w3.org/2000/svg" xmlns:xlink="http://www.w3.org/1999/xlink">
    <!-- Generator: Sketch 49.1 (51147) - http://www.bohemiancoding.com/sketch -->
    <title>ico/extract</title>
    <desc>Created with Sketch.</desc>
    <defs></defs>
    <g id="ico/extract" stroke="none" stroke-width="1" fill="none" fill-rule="evenodd">
        <path d="M6,37 L6,38 C6,39.6568542 7.34314575,41 9,41 L40,41 C41.6568542,41 43,39.6568542 43,38 L43,37 L6,37 Z M6,33 L43,33 L43,22 C43,20.3431458 41.6568542,19 40,19 L8.88095238,19 C7.82182657,19 6.85857156,18.7942775 6,18.3973221 L6,33 Z M2.0858778,12.3865897 C2.70097199,7.66912761 6.54705668,4 11.2522686,4 L33.7477314,4 C38.8861751,4 43,8.37590255 43,13.7142857 L43,15.6736312 C45.3649473,16.7970951 47,19.207604 47,22 L47,38 C47,41.8659932 43.8659932,45 40,45 L9,45 C5.13400675,45 2,41.8659932 2,38 L2,13 C2,12.7786288 2.03038151,12.573861 2.0858778,12.3865897 Z M39,15 L39,13.7142857 C39,10.5317042 36.6199224,8 33.7477314,8 L11.2522686,8 C8.65902247,8 6.4669441,10.0638294 6.0656182,12.8071569 C6.71600746,14.3740572 7.59058772,15 8.88095238,15 L39,15 Z" id="Combined-Shape" fill="#FFFFFF" fill-rule="nonzero"></path>
    </g>
</svg>