<?xml version="1.0" encoding="UTF-8"?>
<svg width="46px" height="46px" viewBox="0 0 46 46" version="1.1" xmlns="http://www.w3.org/2000/svg" xmlns:xlink="http://www.w3.org/1999/xlink">
    <!-- Generator: Sketch 49.1 (51147) - http://www.bohemiancoding.com/sketch -->
    <title>ico/barico/getico-sel</title>
    <desc>Created with Sketch.</desc>
    <defs></defs>
    <g id="ico/barico/getico-sel" stroke="none" stroke-width="1" fill="none" fill-rule="evenodd">
        <path d="M21.9661709,12.0613819 L43.7567261,36.366232 C45.6123029,38.4359138 45.5262069,41.5951134 43.5606602,43.5606602 C41.6701052,45.4512151 38.6049101,45.4512151 36.7143551,43.5606602 C36.6498319,43.4961369 36.5871459,43.4298023 36.5263722,43.3617358 L15.5251466,19.8403631 C14.5309082,21.4789663 13.5964859,23.290797 12.7227288,25.2762932 C12.6178745,25.5145605 12.4925429,25.74328 12.3481441,25.9598782 C10.96956,28.0277544 8.1756518,28.586536 6.10777729,27.207953 L2.36892455,24.715392 C0.448399881,23.4350422 -0.191984382,20.9092168 0.8865343,18.8684969 C3.77226235,13.4083166 7.10539773,9.25506882 10.9001969,6.42448957 C15.2811957,3.15665812 21.2753442,1.19605584 28.8641964,0.50616019 C29.3950219,0.457903329 29.9115847,0.694964466 30.2211296,1.12888427 L31.4222755,2.81264998 C31.9115406,3.49850151 31.7401555,4.45267548 31.0427933,4.92538955 C27.5228366,7.31142795 24.4973619,9.691 21.9661709,12.0613819 Z" id="Combined-Shape" fill="#F29700" fill-rule="nonzero"></path>
    </g>
</svg>