<?xml version="1.0" encoding="UTF-8"?>
<svg width="119px" height="149px" viewBox="0 0 119 149" version="1.1" xmlns="http://www.w3.org/2000/svg" xmlns:xlink="http://www.w3.org/1999/xlink">
    <!-- Generator: Sketch 49.1 (51147) - http://www.bohemiancoding.com/sketch -->
    <title>logo</title>
    <desc>Created with Sketch.</desc>
    <defs></defs>
    <g id="logo" stroke="none" stroke-width="1" fill="none" fill-rule="evenodd">
        <path d="M103.263333,118.746296 C103.218889,118.746296 103.176296,118.757407 103.133704,118.759259 L97.0688889,105.385185 L112.441111,99.1462963 L112.442963,99.1462963 L103.405926,118.762963 C103.35963,118.757407 103.311481,118.746296 103.263333,118.746296 Z M84.8837037,135.364815 L85.3188889,123.37963 L100.394815,122.55 L85.0818519,135.47037 C85.0151852,135.438889 84.9522222,135.394444 84.8837037,135.364815 Z M57.6059259,141.255556 C57.48,141.255556 57.3614815,141.277778 57.2411111,141.294444 L49.4540741,126.242593 L80.5651852,137.644444 L60.0892593,142.951852 C59.6985185,141.961111 58.7392593,141.255556 57.6059259,141.255556 Z M44.9077778,125.231481 C44.93,125.305556 44.9485185,125.37963 44.9762963,125.45 L35.2411111,134.57037 C34.8966667,134.409259 34.5133333,134.311111 34.1077778,134.311111 C33.6448148,134.311111 33.2151852,134.444444 32.8355556,134.655556 L18.092963,122.692593 L44.9077778,125.231481 Z M6.80592593,97.337037 L18.9022222,92.6777778 L25.8874074,100.827778 L15.3725926,118.787037 C15.2411111,118.768519 15.1096296,118.746296 14.9744444,118.746296 C14.93,118.746296 14.8892593,118.757407 14.842963,118.759259 L6.03555556,99.1814815 C6.50777778,98.7055556 6.80222222,98.0555556 6.80592593,97.337037 Z M16.33,52.737037 C16.4596296,52.737037 16.5837037,52.7166667 16.7114815,52.6981481 L22.7318519,63.1833333 L6.38185185,71.6685185 L16.0874074,52.7111111 C16.1688889,52.7185185 16.2466667,52.737037 16.33,52.737037 Z M39.392963,46.5388889 L19.2837037,48.75 L41.2244444,29.1185185 L39.392963,46.5388889 Z M61.8040741,44.6444444 C61.7633333,44.4907407 61.7133333,44.3444444 61.6466667,44.2055556 L75.6262963,29.2166667 C75.9337037,29.337037 76.2633333,29.4074074 76.6133333,29.4074074 C77.0262963,29.4074074 77.417037,29.3037037 77.7651852,29.1333333 L99.2596296,48.7592593 L61.8040741,44.6444444 Z M96.4892593,63.5555556 L101.913333,52.712963 C101.991111,52.7203704 102.067037,52.737037 102.144815,52.737037 C102.231852,52.737037 102.315185,52.7185185 102.402222,52.7111111 L112.098519,71.6555556 L96.4892593,63.5555556 Z M6.08,95.5111111 C5.80777778,95.2203704 5.4762963,94.987037 5.09851852,94.8388889 L5.09851852,76.5722222 L17.5466667,91.0962963 L6.08,95.5111111 Z M112.605926,95.3351852 L88.4225926,83.0648148 C88.4244444,83.0537037 88.4262963,83.0407407 88.4262963,83.0259259 L112.311481,75.6092593 C112.596667,75.9592593 112.961481,76.2388889 113.389259,76.4111111 L113.389259,94.8407407 C113.098519,94.9592593 112.835556,95.1296296 112.605926,95.3351852 Z M85.8040741,109.959259 L95.2540741,106.122222 L101.344815,119.562963 C101.068889,119.848148 100.865185,120.196296 100.737407,120.57963 L85.3892593,121.42037 L85.8040741,109.959259 Z M83.3522222,123.488889 L82.9318519,135.301852 C82.5040741,135.453704 82.1318519,135.707407 81.8355556,136.038889 L52.2596296,125.196296 L83.3522222,123.488889 Z M33.9966667,110.290741 L45.1022222,123.25 C45.0966667,123.259259 45.0911111,123.27037 45.0855556,123.27963 L17.8596296,120.703704 L33.9966667,110.290741 Z M34.1707407,83.1074074 C34.1651852,83.1166667 34.1596296,83.1240741 34.1522222,83.1333333 L6.79481481,73.8037037 C6.79666667,73.762963 6.80777778,73.7240741 6.80777778,73.6851852 C6.80777778,73.6759259 6.80407407,73.6648148 6.80407407,73.6518519 L23.7059259,64.8814815 L34.1707407,83.1074074 Z M38.5040741,54.9981481 L24.4837037,62.2740741 L18.4225926,51.7148148 C18.6448148,51.4351852 18.8096296,51.112963 18.9059259,50.7592593 L39.1837037,48.5296296 L38.5040741,54.9981481 Z M85.8392593,58.0296296 L64.3596296,46.8833333 L99.0059259,50.7037037 L85.8392593,58.0296296 Z M111.726296,73.7203704 L87.8281481,81.15 C87.7985185,81.1166667 87.7725926,81.0814815 87.7411111,81.0481481 L95.6133333,65.3074074 L111.731852,73.6759259 C111.73,73.6907407 111.728148,73.7055556 111.726296,73.7203704 Z M87.8114815,84.9648148 L111.73,97.0759259 C111.722593,97.1592593 111.705926,97.2407407 111.705926,97.3259259 C111.705926,97.3314815 111.707778,97.3351852 111.707778,97.3407407 L96.267037,103.611111 L87.8114815,84.9648148 Z M85.88,107.825926 L86.6337037,87.0907407 L94.4485185,104.348148 L85.88,107.825926 Z M53.2225926,123.183333 L83.8077778,110.768519 L83.4225926,121.52963 L53.2225926,123.183333 Z M32.7077778,108.787037 L17.8911111,118.357407 L27.23,102.394444 L32.7077778,108.787037 Z M36.0725926,87.287037 C36.1651852,87.2962963 36.2559259,87.3148148 36.3522222,87.3148148 C37.0614815,87.3148148 37.7022222,87.0314815 38.1781481,86.5777778 L56.5855556,92.9333333 C56.592963,93.0685185 56.6022222,93.2055556 56.6281481,93.337037 L34.3744444,107.712963 L28.28,100.605556 L36.0725926,87.287037 Z M34.08,86.8333333 L26.9355556,99.037037 L20.842963,91.9314815 L34.08,86.8333333 Z M33.4688889,84.9666667 L19.4855556,90.35 L7.21333333,76.0351852 L33.4688889,84.9666667 Z M38.2596296,57.3277778 L35.6892593,81.7888889 L25.4577778,63.9703704 L38.2596296,57.3277778 Z M54.1411111,46.8814815 L40.5874074,53.9166667 L41.1781481,48.3074074 L54.1411111,46.8814815 Z M87.9133333,59.1037037 L99.8559259,52.4555556 L94.7559259,62.6555556 L87.9133333,59.1037037 Z M85.992963,80.1777778 C85.9114815,80.1722222 85.8374074,80.1537037 85.7540741,80.1537037 C84.9374074,80.1537037 84.2188889,80.5333333 83.7337037,81.1166667 L62.5225926,74.0148148 C62.5355556,73.9185185 62.5522222,73.8259259 62.5522222,73.7259259 C62.5522222,73.5648148 62.5337037,73.4055556 62.5059259,73.2518519 L85.8633333,60.2462963 L93.88,64.4074074 L85.992963,80.1777778 Z M83.7874074,59.1703704 L61.4651852,71.5888889 C61.1096296,71.3259259 60.6892593,71.1537037 60.23,71.0944444 L60.23,47.8111111 C60.5133333,47.6962963 60.7688889,47.5333333 60.9948148,47.3351852 L83.7874074,59.1703704 Z M51.1022222,121.948148 L84.7133333,85.4203704 L83.8837037,108.638889 L51.1022222,121.948148 Z M57.317037,95.237037 L47.4022222,121.811111 C47.1188889,121.812963 46.8485185,121.872222 46.5911111,121.959259 L35.6633333,109.214815 L57.317037,95.237037 Z M56.7355556,47.737037 L37.8040741,80.437037 L40.342963,56.2462963 L56.7355556,47.737037 Z M38.5077778,83.1148148 L58.2707407,48.9777778 L58.2707407,71.6222222 C57.6337037,72.1111111 57.2188889,72.8703704 57.2188889,73.7259259 C57.2188889,75.1907407 58.4133333,76.387037 59.892963,76.387037 C60.5392593,76.387037 61.1244444,76.1444444 61.5855556,75.7611111 L83.1096296,82.9759259 C83.1281481,83.3333333 83.217037,83.6740741 83.3633333,83.9833333 L50.1114815,120.138889 L59.3003704,95.4740741 C60.742963,95.4462963 61.9096296,94.2703704 61.9096296,92.8148148 C61.9096296,91.3481481 60.7151852,90.15 59.2485185,90.15 C58.4337037,90.15 57.717037,90.5185185 57.2281481,91.087037 L38.9892593,84.8 C38.9911111,84.7518519 39.0040741,84.7037037 39.0040741,84.6537037 C39.0040741,84.0796296 38.817037,83.5518519 38.5077778,83.1148148 Z M43.3855556,29.2333333 L56.8559259,44.1666667 C56.7837037,44.3166667 56.7244444,44.4759259 56.68,44.6388889 L41.3837037,46.3203704 L43.1725926,29.3 C43.2448148,29.2777778 43.3151852,29.2592593 43.3855556,29.2333333 Z M59.117037,6.17222222 C59.3596296,6.17222222 59.5874074,6.12962963 59.8077778,6.06851852 L74.342963,25.3462963 C74.0892593,25.7592593 73.9337037,26.237037 73.9337037,26.7555556 C73.9337037,27.1574074 74.03,27.5314815 74.1911111,27.8722222 L60.217037,42.8462963 C59.917037,42.7277778 59.5911111,42.6537037 59.2485185,42.6537037 C58.9188889,42.6537037 58.6059259,42.7222222 58.3151852,42.8314815 L44.8355556,27.9148148 C45.0077778,27.562963 45.1133333,27.1740741 45.1133333,26.7555556 C45.1133333,26.2185185 44.9540741,25.7185185 44.6837037,25.2981481 L58.467037,6.08333333 C58.6762963,6.13518519 58.8911111,6.17222222 59.117037,6.17222222 Z M36.7762963,136.781481 C36.7522222,136.503704 36.6985185,136.233333 36.5966667,135.988889 L46.3225926,126.887037 C46.6651852,127.044444 47.042963,127.142593 47.4466667,127.142593 C47.5392593,127.142593 47.6281481,127.122222 47.717037,127.114815 L55.542963,142.261111 C55.4355556,142.398148 55.3411111,142.546296 55.2596296,142.701852 L36.7762963,136.781481 Z M115.348519,94.837037 L115.348519,76.4148148 C116.337407,76.0240741 117.041111,75.0666667 117.041111,73.9425926 C117.041111,72.4777778 115.842963,71.2759259 114.376296,71.2759259 C114.289259,71.2759259 114.207778,71.2944444 114.122593,71.3018519 L104.142963,51.8240741 C104.55963,51.35 104.820741,50.737037 104.820741,50.0574074 C104.820741,48.587037 103.618889,47.3851852 102.144815,47.3851852 C101.724444,47.3851852 101.331852,47.4925926 100.978148,47.6685185 L79.0855556,27.7074074 C79.2003704,27.4092593 79.2688889,27.0907407 79.2688889,26.7555556 C79.2688889,25.2740741 78.0744444,24.0685185 76.6133333,24.0685185 C76.3651852,24.0685185 76.1262963,24.112963 75.8966667,24.1796296 L61.3762963,4.89074074 C61.6244444,4.48333333 61.7762963,4.01111111 61.7762963,3.5 C61.7762963,2.03148148 60.5818519,0.844444444 59.117037,0.844444444 C57.6337037,0.844444444 56.4411111,2.03148148 56.4411111,3.5 C56.4411111,4.03518519 56.6022222,4.53148148 56.8744444,4.95 L43.1207407,24.162963 C42.9096296,24.1055556 42.692963,24.0685185 42.4651852,24.0685185 C40.9837037,24.0685185 39.7707407,25.2740741 39.7707407,26.7555556 C39.7707407,27.0777778 39.8374074,27.3833333 39.9448148,27.6666667 L17.5522222,47.6925926 C17.1837037,47.5037037 16.7725926,47.3851852 16.33,47.3851852 C14.8688889,47.3851852 13.6781481,48.587037 13.6781481,50.0574074 C13.6781481,50.7351852 13.9374074,51.3481481 14.3503704,51.8222222 L4.50962963,71.0592593 C4.37814815,71.0388889 4.24666667,71.0185185 4.11148148,71.0185185 C2.64666667,71.0185185 1.46333333,72.2203704 1.46333333,73.6851852 C1.46333333,74.812963 2.15962963,75.7759259 3.13925926,76.1685185 L3.13925926,94.8388889 C2.15962963,95.2314815 1.46333333,96.1962963 1.46333333,97.3259259 C1.46333333,98.7925926 2.64666667,99.9851852 4.11148148,99.9851852 C4.15962963,99.9851852 4.20592593,99.9722222 4.25407407,99.9703704 L13.0577778,119.551852 C12.5837037,120.02963 12.2892593,120.688889 12.2892593,121.418519 C12.2892593,122.890741 13.4911111,124.098148 14.9744444,124.098148 C15.442963,124.098148 15.88,123.961111 16.2651852,123.744444 L31.5911111,136.172222 C31.5077778,136.42963 31.4503704,136.698148 31.4503704,136.983333 C31.4503704,138.444444 32.6466667,139.65 34.1077778,139.65 C34.9466667,139.65 35.6874074,139.255556 36.18,138.655556 L55.0762963,144.701852 C55.4040741,145.794444 56.4003704,146.590741 57.6059259,146.590741 C58.7059259,146.590741 59.6466667,145.933333 60.0559259,144.990741 L81.68,139.385185 C82.167037,140.037037 82.9392593,140.464815 83.8114815,140.464815 C85.2911111,140.464815 86.4985185,139.277778 86.4985185,137.807407 C86.4985185,137.507407 86.4374074,137.222222 86.342963,136.951852 L101.991111,123.759259 C102.372593,123.968519 102.80037,124.098148 103.263333,124.098148 C104.735556,124.098148 105.935556,122.890741 105.935556,121.418519 C105.935556,120.701852 105.648519,120.051852 105.187407,119.572222 L114.204074,99.9666667 C114.261481,99.9703704 114.318889,99.9851852 114.376296,99.9851852 C115.842963,99.9851852 117.041111,98.7925926 117.041111,97.3259259 C117.041111,96.1962963 116.337407,95.2296296 115.348519,94.837037 Z" id="Fill-22" fill="#F29700"></path>
    </g>
</svg>