<?xml version="1.0" encoding="UTF-8"?>
<svg width="44px" height="44px" viewBox="0 0 44 44" version="1.1" xmlns="http://www.w3.org/2000/svg" xmlns:xlink="http://www.w3.org/1999/xlink">
    <!-- Generator: Sketch 49.1 (51147) - http://www.bohemiancoding.com/sketch -->
    <title>ico/money</title>
    <desc>Created with Sketch.</desc>
    <defs></defs>
    <g id="ico/money" stroke="none" stroke-width="1" fill="none" fill-rule="evenodd">
        <path d="M27.5,16.6004372 C28.3115646,16.5340724 29.1474025,16.5 30,16.5 C37.377417,16.5 43.5,19.0510763 43.5,23 L43.5,30 L43.5,37 C43.5,40.9489237 37.377417,43.5 30,43.5 C22.622583,43.5 16.5,40.9489237 16.5,37 L16.5,34.3995628 C15.6884354,34.4659276 14.8525975,34.5 14,34.5 C6.622583,34.5 0.5,31.9489237 0.5,28 L0.5,21 L0.5,14 L0.5,7 C0.5,3.05107625 6.622583,0.5 14,0.5 C21.377417,0.5 27.5,3.05107625 27.5,7 L27.5,14 L27.5,16.6004372 Z M17.5982214,20.288333 C16.4499365,20.4276067 15.2427728,20.5 14,20.5 C9.78969948,20.5 5.98809818,19.6691149 3.5,18.2217037 L3.5,21 C3.5,22.5739237 8.122583,24.5 14,24.5 C14.8640178,24.5 15.7009175,24.4583758 16.5,24.3823652 L16.5,23 C16.5,22.0002848 16.8924007,21.0901587 17.5982214,20.288333 Z M19.5,27.2217037 L19.5,30 C19.5,31.5739237 24.122583,33.5 30,33.5 C35.877417,33.5 40.5,31.5739237 40.5,30 L40.5,27.2217037 C38.0119018,28.6691149 34.2103005,29.5 30,29.5 C25.7896995,29.5 21.9880982,28.6691149 19.5,27.2217037 Z M24.5,11.2217037 C22.0119018,12.6691149 18.2103005,13.5 14,13.5 C9.78969948,13.5 5.98809818,12.6691149 3.5,11.2217037 L3.5,14 C3.5,15.5739237 8.122583,17.5 14,17.5 C19.877417,17.5 24.5,15.5739237 24.5,14 L24.5,11.2217037 Z M16.5,27.3995628 C15.6884354,27.4659276 14.8525975,27.5 14,27.5 C9.78969948,27.5 5.98809818,26.6691149 3.5,25.2217037 L3.5,28 C3.5,29.5739237 8.122583,31.5 14,31.5 C14.8640178,31.5 15.7009175,31.4583758 16.5,31.3823652 L16.5,30 L16.5,27.3995628 Z M40.5,34.2217037 C38.0119018,35.6691149 34.2103005,36.5 30,36.5 C25.7896995,36.5 21.9880982,35.6691149 19.5,34.2217037 L19.5,37 C19.5,38.5739237 24.122583,40.5 30,40.5 C35.877417,40.5 40.5,38.5739237 40.5,37 L40.5,34.2217037 Z M14,10.5 C19.877417,10.5 24.5,8.57392375 24.5,7 C24.5,5.42607625 19.877417,3.5 14,3.5 C8.122583,3.5 3.5,5.42607625 3.5,7 C3.5,8.57392375 8.122583,10.5 14,10.5 Z M30,26.5 C35.877417,26.5 40.5,24.5739237 40.5,23 C40.5,21.4260763 35.877417,19.5 30,19.5 C24.122583,19.5 19.5,21.4260763 19.5,23 C19.5,24.5739237 24.122583,26.5 30,26.5 Z" id="Combined-Shape" fill="#FFFFFF" fill-rule="nonzero"></path>
    </g>
</svg>