<?xml version="1.0" encoding="UTF-8"?>
<svg width="44px" height="44px" viewBox="0 0 44 44" version="1.1" xmlns="http://www.w3.org/2000/svg" xmlns:xlink="http://www.w3.org/1999/xlink">
    <!-- Generator: Sketch 49.1 (51147) - http://www.bohemiancoding.com/sketch -->
    <title>ico/password</title>
    <desc>Created with Sketch.</desc>
    <defs></defs>
    <g id="ico/password" stroke="none" stroke-width="1" fill="none" fill-rule="evenodd">
        <path d="M7,17.5 C6.17157288,17.5 5.5,18.1715729 5.5,19 L5.5,38 C5.5,38.8284271 6.17157288,39.5 7,39.5 L37,39.5 C37.8284271,39.5 38.5,38.8284271 38.5,38 L38.5,19 C38.5,18.1715729 37.8284271,17.5 37,17.5 L7,17.5 Z M7.5,14.5 L7.5,14 C7.5,5.99187113 13.9918711,-0.5 22,-0.5 C30.0081289,-0.5 36.5,5.99187113 36.5,14 L36.5,14.5 L37,14.5 C39.4852814,14.5 41.5,16.5147186 41.5,19 L41.5,38 C41.5,40.4852814 39.4852814,42.5 37,42.5 L7,42.5 C4.51471863,42.5 2.5,40.4852814 2.5,38 L2.5,19 C2.5,16.5147186 4.51471863,14.5 7,14.5 L7.5,14.5 Z M33.5,14 C33.5,7.64872538 28.3512746,2.5 22,2.5 C15.6487254,2.5 10.5,7.64872538 10.5,14 L10.5,14.5 L33.5,14.5 L33.5,14 Z" id="Combined-Shape" fill="#FFFFFF" fill-rule="nonzero"></path>
        <path d="M22,23.5 C21.1715729,23.5 20.5,24.1715729 20.5,25 L20.5,30 C20.5,30.8284271 21.1715729,31.5 22,31.5 C22.8284271,31.5 23.5,30.8284271 23.5,30 L23.5,25 C23.5,24.1715729 22.8284271,23.5 22,23.5 Z M22,20.5 C24.4852814,20.5 26.5,22.5147186 26.5,25 L26.5,30 C26.5,32.4852814 24.4852814,34.5 22,34.5 C19.5147186,34.5 17.5,32.4852814 17.5,30 L17.5,25 C17.5,22.5147186 19.5147186,20.5 22,20.5 Z" id="Rectangle-5" fill="#FFFFFF" fill-rule="nonzero"></path>
    </g>
</svg>