<?xml version="1.0" encoding="UTF-8"?>
<svg width="50px" height="50px" viewBox="0 0 50 50" version="1.1" xmlns="http://www.w3.org/2000/svg" xmlns:xlink="http://www.w3.org/1999/xlink">
    <!-- Generator: Sketch 49.1 (51147) - http://www.bohemiancoding.com/sketch -->
    <title>ico/setting</title>
    <desc>Created with Sketch.</desc>
    <defs></defs>
    <g id="ico/setting" stroke="none" stroke-width="1" fill="none" fill-rule="evenodd">
        <path d="M16.0395889,41.7586585 L12.8578028,43.7834316 C11.2761108,44.7899628 9.20755364,44.5628927 7.88187366,43.2372127 L6.76278728,42.1181263 C5.43710731,40.7924464 5.21003718,38.7238892 6.21656845,37.1421972 L8.24134147,33.9604111 C7.65751577,32.8707645 7.17685621,31.7175656 6.81241946,30.513871 L3.13227817,29.6960618 C1.30212795,29.2893618 -4.52299993e-13,27.6661082 -4.52529589e-13,25.7913136 L-4.52432681e-13,24.2086864 C-4.52662277e-13,22.3338918 1.30212795,20.7106382 3.13227817,20.3039382 L6.81241946,19.486129 C7.17685621,18.2824344 7.65751577,17.1292355 8.24134147,16.0395889 L6.21656845,12.8578028 C5.21003718,11.2761108 5.43710731,9.20755364 6.76278728,7.88187366 L7.88187366,6.76278728 C9.20755364,5.43710731 11.2761108,5.21003718 12.8578028,6.21656845 L16.0395889,8.24134147 C17.1292355,7.65751577 18.2824344,7.17685621 19.486129,6.81241946 L20.3039382,3.13227817 C20.7106382,1.30212795 22.3338918,2.12075102e-15 24.2086864,1.77635684e-15 L25.7913136,1.77635684e-15 C27.6661082,1.43196266e-15 29.2893618,1.30212795 29.6960618,3.13227817 L30.513871,6.81241946 C31.7175656,7.17685621 32.8707645,7.65751577 33.9604111,8.24134147 L37.1421972,6.21656845 C38.7238892,5.21003718 40.7924464,5.43710731 42.1181263,6.76278728 L43.2372127,7.88187366 C44.5628927,9.20755364 44.7899628,11.2761108 43.7834316,12.8578028 L41.7586585,16.0395889 C42.3424842,17.1292355 42.8231438,18.2824344 43.1875805,19.486129 L46.8677218,20.3039382 C48.6978721,20.7106382 50,22.3338918 50,24.2086864 L50,25.7913136 C50,27.6661082 48.6978721,29.2893618 46.8677218,29.6960618 L43.1875805,30.513871 C42.8231438,31.7175656 42.3424842,32.8707645 41.7586585,33.9604111 L43.7834316,37.1421972 C44.7899628,38.7238892 44.5628927,40.7924464 43.2372127,42.1181263 L42.1181263,43.2372127 C40.7924464,44.5628927 38.7238892,44.7899628 37.1421972,43.7834316 L33.9604111,41.7586585 C32.8707645,42.3424842 31.7175656,42.8231438 30.513871,43.1875805 L29.6960618,46.8677218 C29.2893618,48.6978721 27.6661082,50 25.7913136,50 L24.2086864,50 C22.3338918,50 20.7106382,48.6978721 20.3039382,46.8677218 L19.486129,43.1875805 C18.2824344,42.8231438 17.1292355,42.3424842 16.0395889,41.7586585 Z M25,36 C31.0751322,36 36,31.0751322 36,25 C36,18.9248678 31.0751322,14 25,14 C18.9248678,14 14,18.9248678 14,25 C14,31.0751322 18.9248678,36 25,36 Z" id="Combined-Shape" fill="#D8D8D8"></path>
    </g>
</svg>