<?xml version="1.0" encoding="UTF-8"?>
<svg width="44px" height="44px" viewBox="0 0 44 44" version="1.1" xmlns="http://www.w3.org/2000/svg" xmlns:xlink="http://www.w3.org/1999/xlink">
    <!-- Generator: Sketch 49.1 (51147) - http://www.bohemiancoding.com/sketch -->
    <title>ico/user</title>
    <desc>Created with Sketch.</desc>
    <defs></defs>
    <g id="ico/user" stroke="none" stroke-width="1" fill="none" fill-rule="evenodd">
        <path d="M18.7390778,25.3481935 C19.4954843,26.1536258 19.1510021,27.4726987 18.0973593,27.805428 L7.74281905,31.0752828 C5.81240412,31.6848876 4.5,33.4756187 4.5,35.5 L4.5,37 C4.5,37.8284271 5.17157288,38.5 6,38.5 L38,38.5 C38.8284271,38.5 39.5,37.8284271 39.5,37 L39.5,35 C39.5,32.7349993 37.9733118,30.7545728 35.7828874,30.1781453 L26.1423109,27.6411515 C25.0560344,27.3552893 24.657794,26.020837 25.4097381,25.1863948 C28.2017505,22.0880621 30.5,15.8577285 30.5,12 C30.5,7.30557963 26.6944204,3.5 22,3.5 C17.3055796,3.5 13.5,7.30557963 13.5,12 C13.5,15.9408734 15.8844693,22.3085662 18.7390778,25.3481935 Z M15.11077,25.6025311 C12.4363895,21.7548374 10.5,15.9965138 10.5,12 C10.5,5.64872538 15.6487254,0.5 22,0.5 C28.3512746,0.5 33.5,5.64872538 33.5,12 C33.5,15.8875627 31.6579017,21.4732176 29.0873956,25.3140344 L36.5463673,27.2769217 C40.0547309,28.2001753 42.5,31.372189 42.5,35 L42.5,37 C42.5,39.4852814 40.4852814,41.5 38,41.5 L6,41.5 C3.51471863,41.5 1.5,39.4852814 1.5,37 L1.5,35.5 C1.5,32.1667792 3.66092333,29.2182722 6.83942494,28.2145348 L15.11077,25.6025311 Z" id="Combined-Shape" fill="#FFFFFF" fill-rule="nonzero"></path>
    </g>
</svg>